<mxfile host="app.diagrams.net" modified="2021-08-20T05:12:20.425Z" agent="5.0 (Macintosh; Intel Mac OS X 10_15_7) AppleWebKit/537.36 (KHTML, like Gecko) Chrome/92.0.4515.131 Safari/537.36" etag="qsqebW8YAuhgAB9GoA0A" version="14.9.7" type="github">
  <diagram id="b9HxkmqDH5tEXi_JkW_S" name="Page-1">
    <mxGraphModel dx="1347" dy="696" grid="1" gridSize="10" guides="1" tooltips="1" connect="1" arrows="1" fold="1" page="1" pageScale="1" pageWidth="291" pageHeight="413" math="0" shadow="0">
      <root>
        <mxCell id="0" />
        <mxCell id="1" parent="0" />
        <mxCell id="hgdPu2ZVZHziBo8AzdUn-4" value="Yes" style="edgeStyle=orthogonalEdgeStyle;rounded=0;orthogonalLoop=1;jettySize=auto;html=1;startSize=3;endSize=5;fillColor=#CCCCCC;strokeWidth=2;" edge="1" parent="1" source="hgdPu2ZVZHziBo8AzdUn-2" target="hgdPu2ZVZHziBo8AzdUn-3">
          <mxGeometry y="-16" relative="1" as="geometry">
            <mxPoint as="offset" />
          </mxGeometry>
        </mxCell>
        <mxCell id="hgdPu2ZVZHziBo8AzdUn-5" value="No" style="edgeStyle=orthogonalEdgeStyle;rounded=0;orthogonalLoop=1;jettySize=auto;html=1;exitX=1;exitY=0.5;exitDx=0;exitDy=0;startSize=3;endSize=5;strokeColor=#000000;strokeWidth=2;fillColor=#CCCCCC;" edge="1" parent="1" source="hgdPu2ZVZHziBo8AzdUn-2">
          <mxGeometry relative="1" as="geometry">
            <mxPoint x="211" y="129.86206896551727" as="targetPoint" />
          </mxGeometry>
        </mxCell>
        <mxCell id="hgdPu2ZVZHziBo8AzdUn-2" value="&lt;font style=&quot;font-size: 12px&quot;&gt;Flip a coin&lt;br&gt;&amp;nbsp;for player1 &lt;br&gt;to win&lt;/font&gt;" style="rhombus;whiteSpace=wrap;html=1;fillColor=#f8cecc;strokeColor=#b85450;" vertex="1" parent="1">
          <mxGeometry x="57" y="90" width="100" height="80" as="geometry" />
        </mxCell>
        <mxCell id="hgdPu2ZVZHziBo8AzdUn-9" style="edgeStyle=orthogonalEdgeStyle;rounded=0;orthogonalLoop=1;jettySize=auto;html=1;startSize=3;endSize=5;strokeColor=#000000;strokeWidth=2;fillColor=#CCCCCC;exitX=1;exitY=0.5;exitDx=0;exitDy=0;entryX=0.5;entryY=0;entryDx=0;entryDy=0;" edge="1" parent="1" source="hgdPu2ZVZHziBo8AzdUn-3" target="hgdPu2ZVZHziBo8AzdUn-14">
          <mxGeometry relative="1" as="geometry">
            <mxPoint x="271" y="190" as="targetPoint" />
            <Array as="points">
              <mxPoint x="241" y="230" />
              <mxPoint x="241" y="230" />
            </Array>
          </mxGeometry>
        </mxCell>
        <mxCell id="hgdPu2ZVZHziBo8AzdUn-3" value="Player 1 to serve first" style="whiteSpace=wrap;html=1;fillColor=#d5e8d4;strokeColor=#82b366;" vertex="1" parent="1">
          <mxGeometry x="50" y="210" width="114" height="40" as="geometry" />
        </mxCell>
        <mxCell id="hgdPu2ZVZHziBo8AzdUn-8" style="edgeStyle=orthogonalEdgeStyle;rounded=0;orthogonalLoop=1;jettySize=auto;html=1;startSize=3;endSize=5;strokeColor=#000000;strokeWidth=2;fillColor=#CCCCCC;entryX=0.5;entryY=0;entryDx=0;entryDy=0;" edge="1" parent="1" source="hgdPu2ZVZHziBo8AzdUn-6" target="hgdPu2ZVZHziBo8AzdUn-14">
          <mxGeometry relative="1" as="geometry">
            <mxPoint x="268" y="180" as="targetPoint" />
          </mxGeometry>
        </mxCell>
        <mxCell id="hgdPu2ZVZHziBo8AzdUn-6" value="Player 2 to serve first" style="whiteSpace=wrap;html=1;fillColor=#d5e8d4;strokeColor=#82b366;" vertex="1" parent="1">
          <mxGeometry x="211" y="110" width="114" height="40" as="geometry" />
        </mxCell>
        <mxCell id="hgdPu2ZVZHziBo8AzdUn-19" style="edgeStyle=orthogonalEdgeStyle;rounded=0;orthogonalLoop=1;jettySize=auto;html=1;entryX=0.5;entryY=0;entryDx=0;entryDy=0;startSize=3;endSize=5;strokeColor=#000000;strokeWidth=2;fillColor=#CCCCCC;" edge="1" parent="1" source="hgdPu2ZVZHziBo8AzdUn-7">
          <mxGeometry relative="1" as="geometry">
            <mxPoint x="268" y="410" as="targetPoint" />
          </mxGeometry>
        </mxCell>
        <mxCell id="hgdPu2ZVZHziBo8AzdUn-7" value="Simulate set&amp;nbsp;" style="rounded=0;whiteSpace=wrap;html=1;fillColor=#fff2cc;strokeColor=#d6b656;" vertex="1" parent="1">
          <mxGeometry x="208" y="340" width="120" height="40" as="geometry" />
        </mxCell>
        <mxCell id="hgdPu2ZVZHziBo8AzdUn-17" style="edgeStyle=orthogonalEdgeStyle;rounded=0;orthogonalLoop=1;jettySize=auto;html=1;startSize=3;endSize=5;strokeColor=#000000;strokeWidth=2;fillColor=#CCCCCC;exitX=0;exitY=0.5;exitDx=0;exitDy=0;exitPerimeter=0;" edge="1" parent="1" source="hgdPu2ZVZHziBo8AzdUn-57">
          <mxGeometry relative="1" as="geometry">
            <mxPoint x="221" y="270" as="targetPoint" />
            <mxPoint x="191" y="500" as="sourcePoint" />
            <Array as="points">
              <mxPoint x="170" y="465" />
              <mxPoint x="170" y="270" />
            </Array>
          </mxGeometry>
        </mxCell>
        <mxCell id="hgdPu2ZVZHziBo8AzdUn-60" value="No" style="edgeLabel;html=1;align=center;verticalAlign=middle;resizable=0;points=[];" vertex="1" connectable="0" parent="hgdPu2ZVZHziBo8AzdUn-17">
          <mxGeometry x="-0.8454" y="1" relative="1" as="geometry">
            <mxPoint as="offset" />
          </mxGeometry>
        </mxCell>
        <mxCell id="hgdPu2ZVZHziBo8AzdUn-15" style="edgeStyle=orthogonalEdgeStyle;rounded=0;orthogonalLoop=1;jettySize=auto;html=1;entryX=0.5;entryY=0;entryDx=0;entryDy=0;startSize=3;endSize=5;strokeColor=#000000;strokeWidth=2;fillColor=#CCCCCC;" edge="1" parent="1">
          <mxGeometry relative="1" as="geometry">
            <mxPoint x="267.9655172413793" y="310.0003374119392" as="sourcePoint" />
            <mxPoint x="267.9999999999999" y="340.03" as="targetPoint" />
          </mxGeometry>
        </mxCell>
        <mxCell id="hgdPu2ZVZHziBo8AzdUn-16" value="Yes" style="edgeLabel;html=1;align=center;verticalAlign=middle;resizable=0;points=[];" vertex="1" connectable="0" parent="hgdPu2ZVZHziBo8AzdUn-15">
          <mxGeometry x="0.1371" y="1" relative="1" as="geometry">
            <mxPoint x="-16" y="-7" as="offset" />
          </mxGeometry>
        </mxCell>
        <mxCell id="hgdPu2ZVZHziBo8AzdUn-21" value="No" style="edgeStyle=orthogonalEdgeStyle;rounded=0;orthogonalLoop=1;jettySize=auto;html=1;exitX=1;exitY=0.5;exitDx=0;exitDy=0;startSize=3;endSize=5;strokeColor=#000000;strokeWidth=2;fillColor=#CCCCCC;entryX=0;entryY=0.5;entryDx=0;entryDy=0;" edge="1" parent="1" source="hgdPu2ZVZHziBo8AzdUn-14">
          <mxGeometry relative="1" as="geometry">
            <mxPoint x="371" y="270" as="targetPoint" />
          </mxGeometry>
        </mxCell>
        <mxCell id="hgdPu2ZVZHziBo8AzdUn-14" value="If set &amp;lt;= 3 sets" style="rhombus;whiteSpace=wrap;html=1;fillColor=#f8cecc;strokeColor=#b85450;" vertex="1" parent="1">
          <mxGeometry x="221.5" y="230" width="93" height="80" as="geometry" />
        </mxCell>
        <mxCell id="hgdPu2ZVZHziBo8AzdUn-24" value="No" style="edgeStyle=orthogonalEdgeStyle;rounded=0;orthogonalLoop=1;jettySize=auto;html=1;startSize=3;endSize=5;strokeColor=#000000;strokeWidth=2;fillColor=#CCCCCC;entryX=0.5;entryY=0;entryDx=0;entryDy=0;" edge="1" parent="1" source="hgdPu2ZVZHziBo8AzdUn-23" target="hgdPu2ZVZHziBo8AzdUn-27">
          <mxGeometry relative="1" as="geometry">
            <mxPoint x="426" y="360" as="targetPoint" />
          </mxGeometry>
        </mxCell>
        <mxCell id="hgdPu2ZVZHziBo8AzdUn-44" style="edgeStyle=orthogonalEdgeStyle;rounded=0;orthogonalLoop=1;jettySize=auto;html=1;exitX=0.5;exitY=0;exitDx=0;exitDy=0;startSize=3;endSize=5;strokeColor=#000000;strokeWidth=2;fillColor=#CCCCCC;" edge="1" parent="1" source="hgdPu2ZVZHziBo8AzdUn-23">
          <mxGeometry relative="1" as="geometry">
            <mxPoint x="701" y="260" as="targetPoint" />
            <Array as="points">
              <mxPoint x="425" y="180" />
              <mxPoint x="701" y="180" />
            </Array>
          </mxGeometry>
        </mxCell>
        <mxCell id="hgdPu2ZVZHziBo8AzdUn-45" value="Yes" style="edgeLabel;html=1;align=center;verticalAlign=middle;resizable=0;points=[];" vertex="1" connectable="0" parent="hgdPu2ZVZHziBo8AzdUn-44">
          <mxGeometry x="-0.4058" y="2" relative="1" as="geometry">
            <mxPoint x="-65" y="22" as="offset" />
          </mxGeometry>
        </mxCell>
        <mxCell id="hgdPu2ZVZHziBo8AzdUn-23" value="&lt;span&gt;&lt;font style=&quot;font-size: 10px&quot;&gt;Check if any player&lt;br&gt;&amp;nbsp;has won all 3 sets&lt;/font&gt;&lt;/span&gt;" style="rhombus;whiteSpace=wrap;html=1;fillColor=#f8cecc;strokeColor=#b85450;" vertex="1" parent="1">
          <mxGeometry x="369.5" y="215" width="110" height="110" as="geometry" />
        </mxCell>
        <mxCell id="hgdPu2ZVZHziBo8AzdUn-26" style="edgeStyle=orthogonalEdgeStyle;rounded=0;orthogonalLoop=1;jettySize=auto;html=1;entryX=0.5;entryY=0;entryDx=0;entryDy=0;startSize=3;endSize=5;strokeColor=#000000;strokeWidth=2;fillColor=#CCCCCC;" edge="1" parent="1" source="hgdPu2ZVZHziBo8AzdUn-27">
          <mxGeometry relative="1" as="geometry">
            <mxPoint x="424.5" y="440" as="targetPoint" />
          </mxGeometry>
        </mxCell>
        <mxCell id="hgdPu2ZVZHziBo8AzdUn-27" value="Simulate 4th set&amp;nbsp;" style="rounded=0;whiteSpace=wrap;html=1;fillColor=#fff2cc;strokeColor=#d6b656;" vertex="1" parent="1">
          <mxGeometry x="364.5" y="370" width="120" height="40" as="geometry" />
        </mxCell>
        <mxCell id="hgdPu2ZVZHziBo8AzdUn-28" style="edgeStyle=orthogonalEdgeStyle;rounded=0;orthogonalLoop=1;jettySize=auto;html=1;entryX=0.5;entryY=0;entryDx=0;entryDy=0;startSize=3;endSize=5;strokeColor=#000000;strokeWidth=2;fillColor=#CCCCCC;" edge="1" parent="1">
          <mxGeometry relative="1" as="geometry">
            <mxPoint x="421.4655172413793" y="609.9999999999999" as="sourcePoint" />
            <mxPoint x="421.4999999999999" y="640" as="targetPoint" />
          </mxGeometry>
        </mxCell>
        <mxCell id="hgdPu2ZVZHziBo8AzdUn-29" style="edgeStyle=orthogonalEdgeStyle;rounded=0;orthogonalLoop=1;jettySize=auto;html=1;entryX=0.5;entryY=0;entryDx=0;entryDy=0;startSize=3;endSize=5;strokeColor=#000000;strokeWidth=2;fillColor=#CCCCCC;" edge="1" parent="1" target="hgdPu2ZVZHziBo8AzdUn-31">
          <mxGeometry relative="1" as="geometry">
            <mxPoint x="423" y="550" as="sourcePoint" />
          </mxGeometry>
        </mxCell>
        <mxCell id="hgdPu2ZVZHziBo8AzdUn-42" style="edgeStyle=orthogonalEdgeStyle;rounded=0;orthogonalLoop=1;jettySize=auto;html=1;entryX=0;entryY=0.5;entryDx=0;entryDy=0;startSize=3;endSize=5;strokeColor=#000000;strokeWidth=2;fillColor=#CCCCCC;exitX=1;exitY=0.5;exitDx=0;exitDy=0;exitPerimeter=0;" edge="1" parent="1" source="hgdPu2ZVZHziBo8AzdUn-61" target="hgdPu2ZVZHziBo8AzdUn-32">
          <mxGeometry relative="1" as="geometry">
            <Array as="points">
              <mxPoint x="510" y="495" />
              <mxPoint x="510" y="265" />
            </Array>
          </mxGeometry>
        </mxCell>
        <mxCell id="hgdPu2ZVZHziBo8AzdUn-63" value="No" style="edgeLabel;html=1;align=center;verticalAlign=middle;resizable=0;points=[];" vertex="1" connectable="0" parent="hgdPu2ZVZHziBo8AzdUn-42">
          <mxGeometry x="-0.8889" y="-1" relative="1" as="geometry">
            <mxPoint y="-16" as="offset" />
          </mxGeometry>
        </mxCell>
        <mxCell id="hgdPu2ZVZHziBo8AzdUn-48" style="edgeStyle=orthogonalEdgeStyle;rounded=0;orthogonalLoop=1;jettySize=auto;html=1;entryX=0.5;entryY=0;entryDx=0;entryDy=0;startSize=3;endSize=5;strokeColor=#000000;strokeWidth=2;fillColor=#CCCCCC;" edge="1" parent="1" source="hgdPu2ZVZHziBo8AzdUn-31" target="hgdPu2ZVZHziBo8AzdUn-46">
          <mxGeometry relative="1" as="geometry" />
        </mxCell>
        <mxCell id="hgdPu2ZVZHziBo8AzdUn-31" value="Determine who won the set" style="rounded=0;whiteSpace=wrap;html=1;fillColor=#d5e8d4;strokeColor=#82b366;" vertex="1" parent="1">
          <mxGeometry x="361.5" y="600" width="123" height="60" as="geometry" />
        </mxCell>
        <mxCell id="hgdPu2ZVZHziBo8AzdUn-40" style="edgeStyle=orthogonalEdgeStyle;rounded=0;orthogonalLoop=1;jettySize=auto;html=1;startSize=3;endSize=5;strokeColor=#000000;strokeWidth=2;fillColor=#CCCCCC;" edge="1" parent="1" source="hgdPu2ZVZHziBo8AzdUn-32" target="hgdPu2ZVZHziBo8AzdUn-35">
          <mxGeometry relative="1" as="geometry" />
        </mxCell>
        <mxCell id="hgdPu2ZVZHziBo8AzdUn-41" value="No" style="edgeLabel;html=1;align=center;verticalAlign=middle;resizable=0;points=[];" vertex="1" connectable="0" parent="hgdPu2ZVZHziBo8AzdUn-40">
          <mxGeometry x="-0.1917" y="-2" relative="1" as="geometry">
            <mxPoint as="offset" />
          </mxGeometry>
        </mxCell>
        <mxCell id="hgdPu2ZVZHziBo8AzdUn-43" value="Yes" style="edgeStyle=orthogonalEdgeStyle;rounded=0;orthogonalLoop=1;jettySize=auto;html=1;startSize=3;endSize=5;strokeColor=#000000;strokeWidth=2;fillColor=#CCCCCC;" edge="1" parent="1" source="hgdPu2ZVZHziBo8AzdUn-32">
          <mxGeometry x="-0.8959" relative="1" as="geometry">
            <mxPoint x="670" y="630" as="targetPoint" />
            <Array as="points">
              <mxPoint x="701" y="265" />
              <mxPoint x="701" y="630" />
            </Array>
            <mxPoint as="offset" />
          </mxGeometry>
        </mxCell>
        <mxCell id="hgdPu2ZVZHziBo8AzdUn-32" value="&lt;span&gt;&lt;font style=&quot;font-size: 10px&quot;&gt;Check if any player&lt;br&gt;&amp;nbsp;has won all 3 sets&lt;/font&gt;&lt;/span&gt;" style="rhombus;whiteSpace=wrap;html=1;fillColor=#f8cecc;strokeColor=#b85450;" vertex="1" parent="1">
          <mxGeometry x="536" y="210" width="110" height="110" as="geometry" />
        </mxCell>
        <mxCell id="hgdPu2ZVZHziBo8AzdUn-34" style="edgeStyle=orthogonalEdgeStyle;rounded=0;orthogonalLoop=1;jettySize=auto;html=1;entryX=0.5;entryY=0;entryDx=0;entryDy=0;startSize=3;endSize=5;strokeColor=#000000;strokeWidth=2;fillColor=#CCCCCC;" edge="1" parent="1" source="hgdPu2ZVZHziBo8AzdUn-35">
          <mxGeometry relative="1" as="geometry">
            <mxPoint x="591" y="440" as="targetPoint" />
          </mxGeometry>
        </mxCell>
        <mxCell id="hgdPu2ZVZHziBo8AzdUn-35" value="Simulate 5th set&amp;nbsp;" style="rounded=0;whiteSpace=wrap;html=1;fillColor=#fff2cc;strokeColor=#d6b656;" vertex="1" parent="1">
          <mxGeometry x="531" y="370" width="120" height="40" as="geometry" />
        </mxCell>
        <mxCell id="hgdPu2ZVZHziBo8AzdUn-37" style="edgeStyle=orthogonalEdgeStyle;rounded=0;orthogonalLoop=1;jettySize=auto;html=1;entryX=1;entryY=0.5;entryDx=0;entryDy=0;startSize=3;endSize=5;strokeColor=#000000;strokeWidth=2;fillColor=#CCCCCC;" edge="1" parent="1" target="hgdPu2ZVZHziBo8AzdUn-31">
          <mxGeometry relative="1" as="geometry">
            <mxPoint x="590" y="550" as="sourcePoint" />
            <mxPoint x="589.5" y="600.0000000000001" as="targetPoint" />
            <Array as="points">
              <mxPoint x="590" y="630" />
            </Array>
          </mxGeometry>
        </mxCell>
        <mxCell id="hgdPu2ZVZHziBo8AzdUn-65" value="Yes" style="edgeLabel;html=1;align=center;verticalAlign=middle;resizable=0;points=[];" vertex="1" connectable="0" parent="hgdPu2ZVZHziBo8AzdUn-37">
          <mxGeometry x="-0.1155" y="1" relative="1" as="geometry">
            <mxPoint x="1" y="-51" as="offset" />
          </mxGeometry>
        </mxCell>
        <mxCell id="hgdPu2ZVZHziBo8AzdUn-46" value="Record the match winner" style="rounded=0;whiteSpace=wrap;html=1;fillColor=#e1d5e7;strokeColor=#9673a6;" vertex="1" parent="1">
          <mxGeometry x="358" y="700" width="130" height="60" as="geometry" />
        </mxCell>
        <mxCell id="hgdPu2ZVZHziBo8AzdUn-54" value="" style="edgeStyle=orthogonalEdgeStyle;html=1;verticalAlign=bottom;endArrow=classic;endSize=8;fillColor=#CCCCCC;endFill=1;strokeWidth=2;" edge="1" parent="1">
          <mxGeometry relative="1" as="geometry">
            <mxPoint x="107" y="90" as="targetPoint" />
            <mxPoint x="107" y="60" as="sourcePoint" />
          </mxGeometry>
        </mxCell>
        <mxCell id="hgdPu2ZVZHziBo8AzdUn-56" value="Start" style="strokeWidth=2;html=1;shape=mxgraph.flowchart.start_1;whiteSpace=wrap;fillColor=#bac8d3;strokeColor=#23445d;" vertex="1" parent="1">
          <mxGeometry x="66" y="30" width="80" height="30" as="geometry" />
        </mxCell>
        <mxCell id="hgdPu2ZVZHziBo8AzdUn-58" style="edgeStyle=orthogonalEdgeStyle;rounded=0;orthogonalLoop=1;jettySize=auto;html=1;entryX=0;entryY=0.5;entryDx=0;entryDy=0;endArrow=classic;endFill=1;strokeColor=#000000;strokeWidth=2;fillColor=#CCCCCC;exitX=0.5;exitY=1;exitDx=0;exitDy=0;exitPerimeter=0;" edge="1" parent="1" source="hgdPu2ZVZHziBo8AzdUn-57" target="hgdPu2ZVZHziBo8AzdUn-31">
          <mxGeometry relative="1" as="geometry">
            <mxPoint x="266.4999999999998" y="600" as="targetPoint" />
          </mxGeometry>
        </mxCell>
        <mxCell id="hgdPu2ZVZHziBo8AzdUn-59" value="Yes" style="edgeLabel;html=1;align=center;verticalAlign=middle;resizable=0;points=[];" vertex="1" connectable="0" parent="hgdPu2ZVZHziBo8AzdUn-58">
          <mxGeometry x="-0.4667" y="-1" relative="1" as="geometry">
            <mxPoint x="-17" as="offset" />
          </mxGeometry>
        </mxCell>
        <mxCell id="hgdPu2ZVZHziBo8AzdUn-57" value="&lt;span&gt;Check if the &lt;br&gt;match is forfeited due to injury&lt;/span&gt;" style="strokeWidth=1;html=1;shape=mxgraph.flowchart.decision;whiteSpace=wrap;shadow=0;fillColor=#fad9d5;strokeColor=#ae4132;" vertex="1" parent="1">
          <mxGeometry x="213" y="410" width="110" height="110" as="geometry" />
        </mxCell>
        <mxCell id="hgdPu2ZVZHziBo8AzdUn-62" value="Yes" style="edgeStyle=orthogonalEdgeStyle;rounded=0;orthogonalLoop=1;jettySize=auto;html=1;endArrow=classic;endFill=1;strokeColor=#000000;strokeWidth=2;fillColor=#CCCCCC;" edge="1" parent="1" source="hgdPu2ZVZHziBo8AzdUn-61" target="hgdPu2ZVZHziBo8AzdUn-31">
          <mxGeometry x="-0.2" relative="1" as="geometry">
            <mxPoint as="offset" />
          </mxGeometry>
        </mxCell>
        <mxCell id="hgdPu2ZVZHziBo8AzdUn-61" value="&lt;span&gt;Check if the &lt;br&gt;match is forfeited due to injury&lt;/span&gt;" style="strokeWidth=1;html=1;shape=mxgraph.flowchart.decision;whiteSpace=wrap;shadow=0;fillColor=#fad9d5;strokeColor=#ae4132;" vertex="1" parent="1">
          <mxGeometry x="368" y="440" width="110" height="110" as="geometry" />
        </mxCell>
        <mxCell id="hgdPu2ZVZHziBo8AzdUn-66" style="edgeStyle=orthogonalEdgeStyle;rounded=0;orthogonalLoop=1;jettySize=auto;html=1;endArrow=classic;endFill=1;strokeColor=#000000;strokeWidth=2;fillColor=#CCCCCC;exitX=1;exitY=0.5;exitDx=0;exitDy=0;exitPerimeter=0;" edge="1" parent="1" source="hgdPu2ZVZHziBo8AzdUn-64">
          <mxGeometry relative="1" as="geometry">
            <mxPoint x="600" y="630" as="targetPoint" />
            <Array as="points">
              <mxPoint x="665" y="495" />
              <mxPoint x="665" y="630" />
            </Array>
          </mxGeometry>
        </mxCell>
        <mxCell id="hgdPu2ZVZHziBo8AzdUn-67" value="No" style="edgeLabel;html=1;align=center;verticalAlign=middle;resizable=0;points=[];" vertex="1" connectable="0" parent="hgdPu2ZVZHziBo8AzdUn-66">
          <mxGeometry x="-0.3333" y="-1" relative="1" as="geometry">
            <mxPoint y="-34" as="offset" />
          </mxGeometry>
        </mxCell>
        <mxCell id="hgdPu2ZVZHziBo8AzdUn-64" value="&lt;span&gt;Check if the &lt;br&gt;match is forfeited due to injury&lt;/span&gt;" style="strokeWidth=1;html=1;shape=mxgraph.flowchart.decision;whiteSpace=wrap;shadow=0;fillColor=#fad9d5;strokeColor=#ae4132;" vertex="1" parent="1">
          <mxGeometry x="534.5" y="440" width="110" height="110" as="geometry" />
        </mxCell>
      </root>
    </mxGraphModel>
  </diagram>
</mxfile>
